<svg width="24" height="24" viewBox="0 0 24 24" fill="none" xmlns="http://www.w3.org/2000/svg">
<path d="M14.5 18.9688H17.5C18.3281 18.9688 19 18.2969 19 17.4688V6.46875C19 5.64063 18.3281 4.96875 17.5 4.96875H14.5C13.6719 4.96875 13 5.64063 13 6.46875V17.4688C13 18.2969 13.6719 18.9688 14.5 18.9688ZM5 17.4688V6.46875C5 5.64063 5.67188 4.96875 6.5 4.96875H9.5C10.3281 4.96875 11 5.64063 11 6.46875V17.4688C11 18.2969 10.3281 18.9688 9.5 18.9688H6.5C5.67188 18.9688 5 18.2969 5 17.4688Z" fill="#828282"/>
</svg>
